<?xml version="1.0" encoding="UTF-8"?><svg xmlns="http://www.w3.org/2000/svg" xmlns:xlink="http://www.w3.org/1999/xlink" viewBox="0 0 65.4 37.8"><defs><radialGradient id="b" cx="1.9" cy="29" fx="1.9" fy="29" r="20.7" gradientTransform="translate(0 40) scale(1 -1)" gradientUnits="userSpaceOnUse"><stop offset="0" stop-color="#085277"/><stop offset="1" stop-color="#5e90aa"/></radialGradient><radialGradient id="c" cx="49.2" cy="51.2" fx="49.2" fy="51.2" r="55.4" gradientUnits="userSpaceOnUse"><stop offset="0" stop-color="#c8d9dd"/><stop offset="1" stop-color="#fff"/></radialGradient><radialGradient id="d" cx="38.8" cy="27.2" fx="38.8" fy="27.2" r="16.1" gradientTransform="translate(0 40) scale(1 -1)" gradientUnits="userSpaceOnUse"><stop offset="0" stop-color="#085277"/><stop offset="1" stop-color="#5e90aa"/></radialGradient><linearGradient id="e" x1="6.3" y1="17.4" x2="34.1" y2="17.4" gradientUnits="userSpaceOnUse"><stop offset="0" stop-color="#2553cd"/><stop offset=".5" stop-color="#003089"/></linearGradient><linearGradient id="f" x1="-4119" y1="34.3" x2="-4126.6" y2="19.2" gradientTransform="translate(-4103.7 40) rotate(-180)" gradientUnits="userSpaceOnUse"><stop offset="0" stop-color="#fff"/><stop offset="0" stop-color="#fafafa"/><stop offset="0" stop-color="#c0c2c4"/><stop offset=".2" stop-color="#8d9195"/><stop offset=".4" stop-color="#61676c"/><stop offset=".5" stop-color="#3e454c"/><stop offset=".6" stop-color="#232a32"/><stop offset=".7" stop-color="#0f1720"/><stop offset=".9" stop-color="#030c15"/><stop offset="1" stop-color="#000912"/></linearGradient></defs><g style="isolation:isolate;"><g id="a"><path d="M4.1,12.6c0-.3-1.9-.2-2.6.6-.7.8-2.8,5.5-.2,10,.7,1,2.1,1.3,3.2,1.2.6-.6.6-9.7-.4-11.8Z" style="fill:#547d9b;"/><path d="M1.8,13c-1.3,4.3,0,10,.3,11,.7.4,1.6.5,2.3.4.6-.6.6-9.7-.4-11.8,0-.2-1.5-.2-2.3.4h.1Z" style="fill:url(#b);"/><circle cx="21.5" cy="18.9" r="18.8" style="fill:url(#c); stroke:#8c8c8c; stroke-miterlimit:10; stroke-width:.2px;"/><path d="M52.4,25.4l11.5-11.5M52.4,13.9h11.5v11.5" style="fill:none; stroke:#f25688; stroke-linecap:round; stroke-linejoin:round; stroke-width:3px;"/><path d="M38.6,12.6c0-.3,1.9-.2,2.6.6.7.8,2.8,5.5.2,10-.7,1-2.1,1.3-3.2,1.2-.6-.6-.6-9.7.4-11.8Z" style="fill:#547d9b;"/><path d="M38.6,12.6c0-.2,1.3-.2,2.1.2-1.2.4-1.5,9.9-.4,11.3-.7.3-1.4.3-2,.2-.6-.6-.6-9.7.4-11.8h0Z" style="fill:url(#d);"/><path d="M32.1,9.4c.8.8,1.8,2.4,2,7.1,0,3.5-.2,8.3-1.7,9.4-1.4,1-6.4,1.4-12.2,1.4s-12.3-1-12.8-2.4c-1.4-3.6-1.6-12.8.8-14.8,1-.8,4.1-2.8,11.2-2.7,6.6,0,11.9,1.2,12.8,2h0Z" style="fill:url(#e);"/><path d="M8.2,10.1c1-.8,4.1-2.8,11.2-2.7,6.6,0,11.9,1.2,12.8,2,.5,1.2,1.8,2.4,2,7.1v1.1c-5.9-1.5-22-2.8-27.8.1,0-3.3.5-6.6,1.9-7.7h-.1Z" style="fill:url(#f); isolation:isolate; mix-blend-mode:screen; opacity:.8;"/><ellipse cx="25.4" cy="16.8" rx="3" ry="2.3" transform="translate(7.2 41.2) rotate(-86.9)" style="fill:#22fbf5;"/><ellipse cx="13.6" cy="16.7" rx="2.3" ry="3" transform="translate(-.5 .4) rotate(-1.8)" style="fill:#22fbf5;"/></g></g></svg>